<svg xmlns="http://www.w3.org/2000/svg" viewBox="0 0 900 360"><defs><linearGradient id="g" x1="0" y1="0" x2="1" y2="1"><stop stop-color="#fff" stop-opacity=".95"/><stop offset=".55" stop-color="#9ec7ff" stop-opacity=".8"/><stop offset="1" stop-color="#ffd43b" stop-opacity=".85"/></linearGradient><filter id="s"><feDropShadow dx="0" dy="18" stdDeviation="18" flood-color="#000" flood-opacity=".45"/></filter></defs><g filter="url(#s)"><path d="M115 165h430c26 0 46 20 46 46v66H95v-92c0-11 9-20 20-20z" fill="url(#g)" opacity=".88"/><path d="M590 202h98c19 0 36 10 46 26l44 69H590z" fill="#dbeafe" opacity=".88"/><path d="M632 218h58c10 0 20 5 25 14l26 42H632z" fill="#183b65" opacity=".85"/><path d="M90 297h710" stroke="#fff" stroke-opacity=".55" stroke-width="10" stroke-linecap="round"/><circle cx="210" cy="299" r="43" fill="#0b1220" stroke="#e5eefc" stroke-width="10"/><circle cx="210" cy="299" r="16" fill="#e5eefc"/><circle cx="645" cy="299" r="43" fill="#0b1220" stroke="#e5eefc" stroke-width="10"/><circle cx="645" cy="299" r="16" fill="#e5eefc"/><path d="M105 142h432" stroke="#ffd43b" stroke-width="8" stroke-linecap="round" opacity=".9"/></g></svg>
